<?xml version="1.0" encoding="UTF-8"?>
<svg width="52px" height="52px" viewBox="0 0 52 52" version="1.1" xmlns="http://www.w3.org/2000/svg" xmlns:xlink="http://www.w3.org/1999/xlink">
    <!-- Generator: Sketch 41.2 (35397) - http://www.bohemiancoding.com/sketch -->
    <title>linkedin</title>
    <desc>Created with Sketch.</desc>
    <defs></defs>
    <g id="Page-1" stroke="none" stroke-width="1" fill="none" fill-rule="evenodd">
        <g id="Desktop-HD" transform="translate(-316.000000, -5368.000000)">
            <g id="linkedin" transform="translate(317.000000, 5369.000000)">
                <g id="Capa_1">
                    <g id="Group">
                        <circle id="Oval" stroke="#FFFFFF" cx="24.8221239" cy="25.2641593" r="24.8221239"></circle>
                        <path d="M39.6530973,27.2615044 L39.6530973,37.4951327 L33.7199115,37.4951327 L33.7199115,27.9473451 C33.7199115,25.55 32.8632743,23.9128319 30.7150442,23.9128319 C29.0756637,23.9128319 28.1017699,25.0150442 27.6716814,26.0823009 C27.5154867,26.4637168 27.4752212,26.9933628 27.4752212,27.5283186 L27.4752212,37.4946903 L21.5415929,37.4946903 C21.5415929,37.4946903 21.6212389,21.3238938 21.5415929,19.65 L27.4756637,19.65 L27.4756637,22.1787611 C27.4637168,22.1986726 27.4469027,22.2181416 27.4362832,22.2371681 L27.4756637,22.2371681 L27.4756637,22.1787611 C28.2641593,20.9654867 29.670354,19.2309735 32.8230088,19.2309735 C36.7265487,19.2309735 39.6530973,21.7814159 39.6530973,27.2615044 L39.6530973,27.2615044 Z M15.3345133,11.0482301 C13.3048673,11.0482301 11.9769912,12.380531 11.9769912,14.1309735 C11.9769912,15.8442478 13.2663717,17.2150442 15.2566372,17.2150442 L15.2951327,17.2150442 C17.3646018,17.2150442 18.6513274,15.8442478 18.6513274,14.1309735 C18.6119469,12.380531 17.3646018,11.0482301 15.3345133,11.0482301 L15.3345133,11.0482301 Z M12.329646,37.4951327 L18.2610619,37.4951327 L18.2610619,19.65 L12.329646,19.65 L12.329646,37.4951327 Z" id="Shape" fill="#F1F2F2"></path>
                    </g>
                </g>
            </g>
        </g>
    </g>
</svg>