<?xml version="1.0" encoding="UTF-8"?>
<svg width="447px" height="450px" viewBox="0 0 447 450" version="1.1" xmlns="http://www.w3.org/2000/svg" xmlns:xlink="http://www.w3.org/1999/xlink">
    <!-- Generator: Sketch 41.2 (35397) - http://www.bohemiancoding.com/sketch -->
    <title>1024x1024 copy</title>
    <desc>Created with Sketch.</desc>
    <defs>
        <linearGradient x1="87.054401%" y1="19.3233767%" x2="11.9502947%" y2="80.4584256%" id="linearGradient-1">
            <stop stop-color="#FF4343" offset="0%"></stop>
            <stop stop-color="#A9113E" offset="100%"></stop>
        </linearGradient>
    </defs>
    <g id="iOS---iPhone-6" stroke="none" stroke-width="1" fill="none" fill-rule="evenodd">
        <g id="1024x1024-copy">
            <g id="Group-2">
                <circle id="Oval-2" fill="#212247" cx="221.5" cy="221.5" r="202.5"></circle>
                <g id="logo-run" transform="translate(117.000000, 111.000000)">
                    <g id="Capa_1">
                        <g id="Group">
                            <path d="M120.331553,138.838762 C120.331553,138.346876 120.048111,134.707153 119.854441,133.470115 C119.66077,132.233076 116.085178,125.710219 115.876266,125.50919 C110.453051,116.122747 98.9519831,98.8506557 92.0121816,89.2060081 C91.615216,88.6543219 91.7490466,88.8871429 91.3222934,88.1861102 C90.8955401,87.4850776 92.0308801,87.3994717 92.5842066,87.2909746 C101.493188,85.5440869 105.600659,84.8434313 107.462371,84.5624067 C108.709149,84.3742062 108.422702,84.4038582 108.705679,84.4038582 C108.988656,84.4038582 109.377103,84.7657289 110.120951,85.4377993 C114.094539,89.0279537 127.070486,100.623885 131.837521,103.308732 C137.496936,106.496176 143.422979,103.37454 144.93271,102.030171 C146.512866,100.62309 149.065437,94.758201 144.93271,89.3504216 C141.277567,84.5675746 123.057073,70.6575269 114.914904,65.4092014 C113.887728,64.7470982 113.091458,64.3599521 112.300851,64.2221933 C111.510244,64.0844345 110.077239,64.0874275 109.048241,64.2221933 C95.6805679,65.9729314 65.2904695,72.4183059 63.0438397,72.8285701 C58.6772956,73.5467326 54.5092308,75.5104581 51.625664,78.4205122 C43.338218,86.7953339 45.0571234,98.0652481 51.797929,106.496176 C62.1937492,119.482948 79.9370474,147.607237 79.9370474,147.607237 C79.9370474,147.607237 59.310655,158.96619 56.0030306,163.220853 C54.8028123,164.764717 53.2383196,167.837482 53.0728461,170.079318 C52.9073725,172.321155 53.0753028,174.670668 54.6130257,177.101692 C67.6583074,194.979124 80.2230967,209.508317 82.5004569,211.00414 C83.4723444,211.82319 85.8430256,212.907986 87.7769064,212.907986 C89.7107873,212.907986 91.1604264,212.802934 93.6683568,212.282325 C94.8655461,212.033805 96.5844429,211.439678 97.8731589,210.447544 C99.1618749,209.45541 100.230507,207.85614 100.652621,207.216943 C101.460282,205.993922 102.318836,204.099469 102.318836,202.269959 C102.318836,200.440449 101.838987,197.903616 100.873728,196.152721 C99.0616527,193.598483 87.6520154,179.214548 84.2969356,174.966646 C84.0277684,174.595064 83.9876786,174.501527 83.9876786,174.258188 C83.9876786,174.014849 84.0548541,173.906169 84.4405996,173.643145 C85.1465076,173.167828 104.820526,160.102199 107.440026,158.345648 C110.312856,156.41922 115.788548,151.161148 116.955522,149.980674 C118.122497,148.800199 119.577499,145.851669 119.854441,144.971298 C120.131383,144.090927 120.331553,140.377426 120.331553,138.838762 Z" id="Shape" fill="#EAEAEA"></path>
                            <ellipse id="Oval" fill="#EAEAEA" cx="31.4234748" cy="52.1866409" rx="24.3889784" ry="24.3599161"></ellipse>
                            <path d="M9.61994664,102.774092 C10.9579009,102.774092 11.7994982,103.004635 12.6674772,103.278805 C13.5354563,103.552975 34.8995093,110.511674 34.8995093,110.511674 C34.8995093,110.511674 35.5051508,110.740589 36.1009758,110.511674 C36.6968009,110.28276 36.9187658,109.735882 36.9187658,109.735882 L40.1722787,104.245653 L53.3085867,122.89184 C53.3085867,122.89184 49.5650661,128.998273 48.1503754,130.615362 C46.7356846,132.23245 45.5604502,132.524403 43.4572289,133.106738 C41.3540077,133.689073 40.0847161,133.542874 38.4999741,133.321415 C22.2834618,128.475634 8.47931434,122.819156 6.7428498,122.135832 C5.21890588,121.104459 4.07975556,120.627144 2.54325104,118.819091 C1.00674652,117.011039 0.281928634,114.158621 0.281928634,112.089699 C0.281928634,110.020776 1.10978136,108.010806 3.28080801,105.830145 C5.45183465,103.649484 8.28199235,102.774092 9.61994664,102.774092 Z" id="Path-2" fill="#EAEAEA"></path>
                            <path d="M124.781204,153.943928 C124.63994,154.028892 124.512477,154.112494 124.297061,154.492106 C123.632873,155.662558 121.916079,158.377632 118.96993,161.035233 C115.775265,163.917011 114.439784,164.008653 110.238,167.24714 C109.832112,167.559975 109.850157,167.988127 109.826384,168.132106 C109.802611,168.276086 109.774686,168.502042 109.754586,169.151023 C109.734486,169.800005 109.726082,170.230103 109.754586,170.450271 C109.78309,170.670438 109.812653,170.856674 110.025326,171.242238 C110.238,171.627801 123.954279,190.657848 123.954279,190.657848 L126.397841,192.820001 L162.842901,219.324382 C162.842901,219.324382 164.179123,220.195875 164.931916,220.432712 C165.68471,220.66955 167.796,220.982506 169.051024,220.982506 C170.306049,220.982506 174.687136,219.408412 177.293116,216.692571 C179.899095,213.97673 180.286435,211.085572 180.286435,209.40671 C180.286435,207.727848 180.128391,206.551779 179.502162,204.288889 C178.412501,201.611623 177.293116,200.389978 176.189476,199.340602 C161.620788,187.575724 142.086254,174.015215 142.086254,174.015215 C142.086254,174.015215 136.059109,166.079362 133.475157,162.410935 C131.476296,159.57316 129.217367,155.962906 128.296861,154.473444 C128.027418,154.03746 128.094127,154.007534 127.826795,153.89536 C127.559463,153.783187 126.902367,153.771893 126.19418,153.783187 C125.485994,153.79448 124.922469,153.858965 124.781204,153.943928 Z" id="Path-3" fill="#EAEAEA"></path>
                            <path d="M67.0559547,62.6761064 C67.0559547,62.6761064 75.5094274,58.1225763 86.2463358,55.4073543 C96.9832443,52.6921322 109.437009,51.9583027 110.379993,51.734058 C112.291258,51.2795528 113.909859,51.2456899 114.604061,51.2456899 C115.298262,51.2456899 117.287753,51.4415278 118.63667,51.9825363 C119.547216,52.4513379 126.936206,56.7598538 133.435914,62.098022 C139.935623,67.4361901 143.55611,72.1457004 146.065161,74.2664463 C146.897573,74.9700325 147.185581,75.0868581 147.565386,75.216896 C147.94519,75.3469338 149.324719,75.7848171 152.111488,75.6130462 C154.898258,75.4412753 156.032333,75.4010183 158.009289,75.3006266 C159.986246,75.2002349 167.735019,75.1331653 173.601289,75.216896 C176.557115,75.2590851 190.789998,73.8623985 203.140831,75.6130462 C215.491664,77.3636939 225.600605,82.2086548 226.342025,82.2086548 C227.148022,82.2086548 228.658991,82.4756656 229.866891,82.2086548 C231.074791,81.941644 231.61043,81.331002 232.039813,80.8814648 C232.469195,80.4319276 232.741438,77.9687248 232.039813,72.1240291 C231.338187,66.2793334 229.686247,61.2757429 229.686247,61.2757429 C229.686247,61.2757429 227.905567,54.6446486 227.836815,50.1438332 C227.768063,45.6430178 233.342824,41.3196083 235.275047,39.2134025 C240.11763,33.9880414 242.324581,31.7087539 242.97485,30.3899606 C242.97485,28.883884 242.151124,27.4262397 241.22401,26.3199654 C240.296895,25.2136911 233.453979,19.6057592 231.309028,17.048935 C229.164078,14.4921109 228.750207,7.74042281 229.111843,5.24405873 C229.473478,2.74769464 233.687211,-0.127668588 231.309028,0.31189041 C225.960573,1.30044425 215.542221,7.38225085 213.658567,8.1002844 C211.774913,8.81831795 208.978077,8.82426579 208.978077,8.82426579 C208.978077,8.82426579 206.216714,9.16572081 203.140831,8.90799644 C200.064948,8.65027207 187.436392,4.29850733 185.425635,3.79341676 C183.414877,3.28832619 180.051955,3.10820536 180.051955,3.10820536 C180.051955,3.10820536 165.012147,3.13692417 162.422938,3.30020985 C159.833729,3.46349554 158.883364,3.93471538 157.744124,4.51502463 C156.604885,5.09533388 154.768111,6.64777816 154.178484,7.22255622 C153.588857,7.79733428 145.760503,16.530838 143.762056,19.0597544 C141.763608,21.5886707 135.778912,29.8997191 135.161735,30.5942345 C133.856831,32.0626584 131.691218,32.9128559 131.121399,33.168952 C130.55158,33.4250481 128.302789,34.1146066 126.448857,34.2538414 C124.91372,34.3691338 108.397595,34.0881013 102.762871,33.9880414 C101.592728,33.9672623 101.534077,33.9542877 100.804509,33.9880414 C100.07494,34.0217951 90.2863188,36.6905488 86.2463358,38.4841818 C82.2063529,40.2778148 77.0845505,43.2164767 76.2233154,43.7334571 C75.4129817,44.3744108 74.3404517,45.4936711 72.8689013,47.9157424 C71.3973508,50.3378137 68.2971078,57.2198957 67.7209735,58.3183568 C66.7783403,60.1155869 67.0559547,62.6761064 67.0559547,62.6761064 Z" id="Path-4" fill="url(#linearGradient-1)"></path>
                        </g>
                    </g>
                </g>
            </g>
        </g>
    </g>
</svg>