<?xml version="1.0" encoding="UTF-8"?>
<svg width="255px" height="232px" viewBox="0 0 255 232" version="1.1" xmlns="http://www.w3.org/2000/svg" xmlns:xlink="http://www.w3.org/1999/xlink">
    <!-- Generator: Sketch 41.2 (35397) - http://www.bohemiancoding.com/sketch -->
    <title>logo-run</title>
    <desc>Created with Sketch.</desc>
    <defs>
        <linearGradient x1="87.054401%" y1="19.3233767%" x2="11.9502947%" y2="80.4584256%" id="linearGradient-1">
            <stop stop-color="#FF4343" offset="0%"></stop>
            <stop stop-color="#A9113E" offset="100%"></stop>
        </linearGradient>
    </defs>
    <g id="Page-1" stroke="none" stroke-width="1" fill="none" fill-rule="evenodd">
        <g id="Desktop-HD" transform="translate(-593.000000, -1127.000000)">
            <g id="logo-run" transform="translate(593.000000, 1127.000000)">
                <g id="Capa_1">
                    <g id="Group">
                        <path d="M126.151441,145.751949 C126.151441,145.23557 125.85429,141.414616 125.651253,140.115981 C125.448215,138.817347 121.699688,131.969698 121.480672,131.758659 C115.795161,121.904838 103.737839,103.772718 96.4623906,93.6478358 C96.0462256,93.0686795 96.186529,93.3130932 95.7391356,92.5771541 C95.2917423,91.841215 96.4819935,91.7513466 97.0620818,91.6374471 C106.40195,89.8035768 110.70808,89.0680335 112.659835,88.7730159 C113.966914,88.5754443 113.666612,88.6065728 113.963276,88.6065728 C114.259939,88.6065728 114.667174,88.986462 115.446999,89.6919967 C119.612771,93.4609154 133.216305,105.634242 138.213899,108.452775 C144.147035,111.798932 150.359693,108.52186 151.942443,107.110551 C153.599024,105.633408 156.275051,99.4764885 151.942443,93.7994399 C148.110518,88.7784411 129.008781,74.1757715 120.472813,68.6661165 C119.395957,67.9710452 118.561175,67.564622 117.73233,67.4200038 C116.903486,67.2753856 115.401172,67.2785276 114.322407,67.4200038 C100.3082,69.2579162 68.4482714,76.0242248 66.0929823,76.4549172 C61.5152484,77.2088391 57.1455934,79.2703442 54.1225616,82.3252985 C45.4342897,91.117127 47.2363307,102.948203 54.3031583,111.798932 C65.2017768,125.432352 83.8032374,154.957032 83.8032374,154.957032 C83.8032374,154.957032 62.1792405,166.881581 58.7116414,171.348096 C57.4533741,172.968834 55.813214,176.1946 55.6397373,178.548064 C55.4662605,180.901528 55.6423128,183.368031 57.2544084,185.920103 C70.9306307,204.687703 84.1031215,219.940348 86.4906272,221.510653 C87.5095205,222.370485 89.9948607,223.509296 92.0222745,223.509296 C94.0496884,223.509296 95.5694399,223.399014 98.1986674,222.852481 C99.4537594,222.591588 101.255791,221.967877 102.606837,220.926342 C103.957882,219.884806 105.078198,218.205905 105.520729,217.534879 C106.367453,216.250961 107.267531,214.262178 107.267531,212.341571 C107.267531,210.420964 106.764474,207.757815 105.75253,205.919737 C103.852812,203.238317 91.8913431,188.138164 88.3739934,183.678747 C88.0918078,183.288662 88.049779,183.190468 88.049779,182.935012 C88.049779,182.679557 88.1202035,182.565465 88.5246058,182.289344 C89.2646553,181.79036 109.890217,168.074155 112.636409,166.23014 C115.648185,164.20779 121.388711,158.687903 122.612127,157.448649 C123.835542,156.209395 125.360916,153.11405 125.651253,152.189842 C125.941589,151.265635 126.151441,147.367228 126.151441,145.751949 Z" id="Shape" fill="#EAEAEA"></path>
                        <ellipse id="Oval" fill="#EAEAEA" cx="32.9432848" cy="54.7851661" rx="25.5685619" ry="25.5728675"></ellipse>
                        <path d="M10.0852195,107.891514 C11.4878845,107.891514 12.370186,108.133537 13.2801453,108.421359 C14.1901045,108.70918 36.5874391,116.014373 36.5874391,116.014373 C36.5874391,116.014373 37.2223727,116.254686 37.8470152,116.014373 C38.4716576,115.774061 38.7043579,115.199952 38.7043579,115.199952 L42.1152283,109.436348 L55.8868796,129.010984 C55.8868796,129.010984 51.962302,135.421473 50.4791891,137.119082 C48.9960763,138.81669 47.7640011,139.12318 45.5590566,139.734511 C43.3541122,140.345842 42.0234308,140.192364 40.362042,139.959877 C23.3612111,134.872811 8.88942005,128.93468 7.06897065,128.217331 C5.47132052,127.134604 4.27707471,126.633522 2.66625648,124.735441 C1.05543826,122.83736 0.295564234,119.842912 0.295564234,117.670972 C0.295564234,115.499032 1.16345642,113.38898 3.43948571,111.099737 C5.715515,108.810494 8.68255449,107.891514 10.0852195,107.891514 Z" id="Path-2" fill="#EAEAEA"></path>
                        <path d="M130.816301,161.609246 C130.668204,161.69844 130.534577,161.786205 130.308743,162.184719 C129.61243,163.413452 127.812602,166.263716 124.723962,169.053648 C121.374786,172.078918 119.974714,172.175122 115.569708,175.574864 C115.14419,175.903275 115.163107,176.352746 115.138185,176.503895 C115.113262,176.655044 115.083987,176.89225 115.062914,177.573547 C115.041842,178.254843 115.033032,178.706357 115.062914,178.937487 C115.092797,179.168618 115.123789,179.364127 115.346749,179.768889 C115.569708,180.17365 129.949381,200.151259 129.949381,200.151259 L132.511128,202.421072 L170.718868,230.245183 C170.718868,230.245183 172.119717,231.160071 172.90892,231.408701 C173.698122,231.657331 175.911526,231.98587 177.22725,231.98587 C178.542974,231.98587 183.135955,230.333398 185.867974,227.482327 C188.599993,224.631257 189.006067,221.596139 189.006067,219.833682 C189.006067,218.071224 188.840379,216.836595 188.183862,214.461029 C187.041499,211.650455 185.867974,210.36798 184.710957,209.266353 C169.437647,196.915667 148.958318,182.679941 148.958318,182.679941 C148.958318,182.679941 142.639667,174.348938 139.930741,170.497849 C137.835204,167.518774 135.467021,163.728754 134.501995,162.165128 C134.219519,161.707435 134.289455,161.676019 134.009193,161.55826 C133.728932,161.440501 133.040055,161.428645 132.297617,161.440501 C131.555178,161.452356 130.964398,161.520052 130.816301,161.609246 Z" id="Path-3" fill="#EAEAEA"></path>
                        <path d="M70.299145,65.7969328 C70.299145,65.7969328 79.1614735,61.0166691 90.4176772,58.1662482 C101.673881,55.3158273 114.729978,54.5454583 115.718569,54.3100478 C117.722274,53.8329114 119.419159,53.7973625 120.146936,53.7973625 C120.874713,53.7973625 122.960426,54.0029516 124.374584,54.5708986 C125.329169,55.0630432 133.07553,59.5860927 139.8896,65.1900638 C146.70367,70.7940349 150.499263,75.7380455 153.129666,77.9643895 C154.002337,78.7030093 154.304275,78.825652 154.702449,78.9621648 C155.100623,79.0986776 156.546873,79.5583644 159.468426,79.3780405 C162.389979,79.1977167 163.578904,79.1554552 165.651477,79.0500647 C167.72405,78.9446742 175.847595,78.874265 181.997591,78.9621648 C185.096376,79.0064547 200.017639,77.540223 212.965825,79.3780405 C225.914012,81.2158581 236.511876,86.3020637 237.289155,86.3020637 C238.134135,86.3020637 239.718183,86.5823697 240.984503,86.3020637 C242.250824,86.0217577 242.812368,85.3807101 243.262519,84.9087891 C243.712669,84.4368682 243.998079,81.8510152 243.262519,75.7152951 C242.526959,69.579575 240.795121,64.326841 240.795121,64.326841 C240.795121,64.326841 238.928318,57.3655652 238.856241,52.6406411 C238.784164,47.9157169 244.62855,43.3770323 246.654227,41.1659523 C251.731023,35.6804052 254.044714,33.2876254 254.726434,31.9031655 C254.726434,30.3220969 253.862868,28.7918723 252.890913,27.6305134 C251.918958,26.4691544 244.745081,20.5819872 242.49639,17.8978513 C240.247698,15.2137154 239.81381,8.12584107 240.192936,5.50517572 C240.572062,2.88451038 244.989594,-0.13402558 242.49639,0.327420344 C236.889254,1.36519717 225.967014,7.74983468 223.992256,8.50362121 C222.017498,9.25740775 219.085392,9.26365175 219.085392,9.26365175 C219.085392,9.26365175 216.190475,9.62210881 212.965825,9.35155159 C209.741176,9.08099437 196.501835,4.51254257 194.393826,3.98230206 C192.285817,3.45206155 188.760246,3.26297198 188.760246,3.26297198 C188.760246,3.26297198 172.993031,3.29312078 170.278594,3.46453694 C167.564156,3.63595309 166.567827,4.13063635 165.373487,4.73984089 C164.179148,5.34904543 162.253538,6.97879044 161.635393,7.58218838 C161.017249,8.18558632 152.810273,17.3539567 150.71517,20.0087952 C148.620066,22.6636337 142.345918,31.3885134 141.698891,32.1176108 C140.330874,33.6591517 138.060521,34.5516831 137.463142,34.820531 C136.865763,35.0893788 134.508209,35.8132725 132.56461,35.9594401 C130.955226,36.0804733 113.640292,35.7854474 107.733042,35.6804052 C106.506305,35.6585915 106.444817,35.6449709 105.679962,35.6804052 C104.915108,35.7158396 94.6530557,38.5174783 90.4176772,40.4004216 C86.1822987,42.2833648 80.8127782,45.3683513 79.909889,45.9110736 C79.0603632,46.5839423 77.9359599,47.7589338 76.3932372,50.3016071 C74.8505146,52.8442804 71.600327,60.0690414 70.9963277,61.2221981 C70.0081036,63.1089175 70.299145,65.7969328 70.299145,65.7969328 Z" id="Path-4" fill="url(#linearGradient-1)"></path>
                    </g>
                </g>
            </g>
        </g>
    </g>
</svg>